<?xml version="1.0" standalone="no"?>
<!DOCTYPE svg PUBLIC "-//W3C//DTD SVG 20010904//EN"
 "http://www.w3.org/TR/2001/REC-SVG-20010904/DTD/svg10.dtd">
<svg version="1.0" xmlns="http://www.w3.org/2000/svg"
 width="512.000000pt" height="512.000000pt" viewBox="0 0 512.000000 512.000000"
 preserveAspectRatio="xMidYMid meet">
<metadata>
Created by potrace 1.14, written by Peter Selinger 2001-2017
</metadata>
<g transform="translate(0.000000,512.000000) scale(0.100000,-0.100000)"
fill="#000000" stroke="none">
<path d="M2379 5116 c-2 -2 -38 -6 -79 -10 -64 -6 -207 -29 -315 -51 -150 -31
-384 -115 -555 -199 -794 -395 -1322 -1150 -1417 -2031 -4 -38 -8 -162 -7
-275 0 -184 3 -241 19 -345 3 -16 7 -43 9 -60 2 -16 12 -66 21 -110 159 -764
665 -1419 1365 -1765 236 -118 492 -200 725 -235 22 -4 54 -9 70 -12 66 -11
98 -13 295 -17 113 -2 239 0 280 5 41 4 98 11 125 14 166 20 496 110 643 176
112 50 269 133 359 190 511 322 883 795 1073 1368 36 107 61 204 75 283 3 17
7 34 9 37 3 5 9 42 22 131 20 146 26 467 11 605 -53 499 -238 954 -546 1340
-332 415 -785 719 -1292 864 -117 34 -287 69 -369 77 -30 3 -62 8 -70 11 -16
6 -445 14 -451 9z"/>
</g>
</svg>
